<svg viewBox="0 0 28 16" xmlns="http://www.w3.org/2000/svg">
<g transform="translate(3 2) scale(0.85 0.85)">
<rect width="28" height="16" rx="1" fill="black"/>
<path d="M10.6 8.704C10.6 9.456 10.518 10.108 10.354 10.66C10.194 11.208 9.974 11.662 9.694 12.022C9.414 12.382 9.082 12.65 8.698 12.826C8.318 13.002 7.91 13.09 7.474 13.09C7.034 13.09 6.624 13.002 6.244 12.826C5.868 12.65 5.54 12.382 5.26 12.022C4.98 11.662 4.76 11.208 4.6 10.66C4.44 10.108 4.36 9.456 4.36 8.704C4.36 7.952 4.44 7.3 4.6 6.748C4.76 6.196 4.98 5.74 5.26 5.38C5.54 5.016 5.868 4.746 6.244 4.57C6.624 4.394 7.034 4.306 7.474 4.306C7.91 4.306 8.318 4.394 8.698 4.57C9.082 4.746 9.414 5.016 9.694 5.38C9.974 5.74 10.194 6.196 10.354 6.748C10.518 7.3 10.6 7.952 10.6 8.704ZM9.49 8.704C9.49 8.048 9.434 7.498 9.322 7.054C9.214 6.606 9.066 6.246 8.878 5.974C8.694 5.702 8.48 5.508 8.236 5.392C7.992 5.272 7.738 5.212 7.474 5.212C7.21 5.212 6.956 5.272 6.712 5.392C6.468 5.508 6.254 5.702 6.07 5.974C5.886 6.246 5.738 6.606 5.626 7.054C5.518 7.498 5.464 8.048 5.464 8.704C5.464 9.36 5.518 9.91 5.626 10.354C5.738 10.798 5.886 11.156 6.07 11.428C6.254 11.7 6.468 11.896 6.712 12.016C6.956 12.132 7.21 12.19 7.474 12.19C7.738 12.19 7.992 12.132 8.236 12.016C8.48 11.896 8.694 11.7 8.878 11.428C9.066 11.156 9.214 10.798 9.322 10.354C9.434 9.91 9.49 9.36 9.49 8.704Z" fill="white"/>
<path d="M23.6979 6.51786C23.6976 6.51786 23.6973 6.51786 23.697 6.51786C23.6962 6.51786 23.6953 6.51786 23.6945 6.51786L20.33 6.54669L19.2533 3.21541C19.2116 3.08662 19.096 3 18.9663 3C18.9653 3 18.9643 3 18.9632 3C18.8321 3.00138 18.7168 3.09077 18.6772 3.22133L17.6639 6.57426L14.2995 6.61493C14.1684 6.61656 14.0533 6.70595 14.0139 6.83663C13.9747 6.96732 14.0203 7.10958 14.1269 7.18915L16.8651 9.23249L15.8624 12.5888C15.8234 12.7196 15.8691 12.8618 15.9759 12.9412C16.0285 12.9804 16.0901 13 16.1515 13C16.2149 13 16.2781 12.9794 16.3316 12.9381L19.0373 10.8479L21.7821 12.8817C21.8346 12.9206 21.896 12.9399 21.9573 12.9399C22.0208 12.9399 22.0843 12.9193 22.1378 12.8778C22.243 12.7962 22.2863 12.653 22.2447 12.523L21.1787 9.18792L23.8728 7.09233C23.9498 7.03492 24 6.94075 24 6.83449C24.0002 6.65975 23.8651 6.51811 23.6979 6.51786Z" fill="white"/>
</g>
</svg>
