<svg viewBox="0 0 28 16" xmlns="http://www.w3.org/2000/svg">
<rect width="28" height="16" rx="1" fill="#1E7D22"/>
<path d="M9.922 11.986C10.038 11.986 10.13 12.02 10.198 12.088C10.266 12.156 10.3 12.244 10.3 12.352V13H4.564V12.634C4.564 12.558 4.58 12.48 4.612 12.4C4.644 12.32 4.694 12.246 4.762 12.178L7.516 9.412C7.744 9.18 7.952 8.958 8.14 8.746C8.328 8.53 8.488 8.314 8.62 8.098C8.752 7.882 8.854 7.664 8.926 7.444C8.998 7.22 9.034 6.982 9.034 6.73C9.034 6.478 8.994 6.258 8.914 6.07C8.834 5.878 8.724 5.72 8.584 5.596C8.448 5.472 8.286 5.38 8.098 5.32C7.91 5.256 7.708 5.224 7.492 5.224C7.272 5.224 7.07 5.256 6.886 5.32C6.702 5.384 6.538 5.474 6.394 5.59C6.254 5.702 6.136 5.836 6.04 5.992C5.944 6.148 5.876 6.32 5.836 6.508C5.788 6.648 5.722 6.742 5.638 6.79C5.558 6.834 5.444 6.846 5.296 6.826L4.738 6.73C4.794 6.338 4.902 5.992 5.062 5.692C5.226 5.388 5.43 5.134 5.674 4.93C5.922 4.726 6.204 4.572 6.52 4.468C6.836 4.36 7.178 4.306 7.546 4.306C7.91 4.306 8.25 4.36 8.566 4.468C8.882 4.576 9.156 4.734 9.388 4.942C9.62 5.146 9.802 5.396 9.934 5.692C10.066 5.988 10.132 6.324 10.132 6.7C10.132 7.02 10.084 7.318 9.988 7.594C9.892 7.866 9.762 8.126 9.598 8.374C9.434 8.622 9.244 8.864 9.028 9.1C8.816 9.336 8.59 9.574 8.35 9.814L6.082 12.13C6.242 12.086 6.404 12.052 6.568 12.028C6.732 12 6.89 11.986 7.042 11.986H9.922Z" fill="white"/>
<path d="M23.6979 6.51786C23.6976 6.51786 23.6973 6.51786 23.697 6.51786C23.6962 6.51786 23.6953 6.51786 23.6945 6.51786L20.33 6.54669L19.2533 3.21541C19.2116 3.08662 19.096 3 18.9663 3C18.9653 3 18.9643 3 18.9632 3C18.8321 3.00138 18.7168 3.09077 18.6772 3.22133L17.6639 6.57426L14.2995 6.61493C14.1684 6.61656 14.0533 6.70595 14.0139 6.83663C13.9747 6.96732 14.0203 7.10958 14.1269 7.18915L16.8651 9.23249L15.8624 12.5888C15.8234 12.7196 15.8691 12.8618 15.9759 12.9412C16.0285 12.9804 16.0901 13 16.1515 13C16.2149 13 16.2781 12.9794 16.3316 12.9381L19.0373 10.8479L21.7821 12.8817C21.8346 12.9206 21.896 12.9399 21.9573 12.9399C22.0208 12.9399 22.0843 12.9193 22.1378 12.8778C22.243 12.7962 22.2863 12.653 22.2447 12.523L21.1787 9.18792L23.8728 7.09233C23.9498 7.03492 24 6.94075 24 6.83449C24.0002 6.65975 23.8651 6.51811 23.6979 6.51786Z" fill="white"/>
</svg>
