<svg viewBox="0 0 28 16" xmlns="http://www.w3.org/2000/svg">
<rect width="28" height="16" rx="1" fill="#3366CC"/>
<path d="M4.78 6.73C4.836 6.338 4.944 5.992 5.104 5.692C5.264 5.388 5.466 5.134 5.71 4.93C5.958 4.726 6.24 4.572 6.556 4.468C6.876 4.36 7.22 4.306 7.588 4.306C7.952 4.306 8.288 4.358 8.596 4.462C8.904 4.566 9.168 4.714 9.388 4.906C9.612 5.098 9.786 5.33 9.91 5.602C10.034 5.874 10.096 6.176 10.096 6.508C10.096 6.78 10.06 7.024 9.988 7.24C9.92 7.452 9.82 7.638 9.688 7.798C9.56 7.958 9.404 8.094 9.22 8.206C9.036 8.318 8.83 8.41 8.602 8.482C9.162 8.626 9.582 8.874 9.862 9.226C10.146 9.574 10.288 10.01 10.288 10.534C10.288 10.93 10.212 11.286 10.06 11.602C9.912 11.918 9.708 12.188 9.448 12.412C9.188 12.632 8.884 12.802 8.536 12.922C8.192 13.038 7.822 13.096 7.426 13.096C6.97 13.096 6.58 13.04 6.256 12.928C5.932 12.812 5.658 12.654 5.434 12.454C5.21 12.254 5.026 12.018 4.882 11.746C4.738 11.47 4.616 11.172 4.516 10.852L4.978 10.66C5.098 10.608 5.214 10.594 5.326 10.618C5.442 10.642 5.526 10.708 5.578 10.816C5.63 10.928 5.694 11.062 5.77 11.218C5.85 11.374 5.958 11.524 6.094 11.668C6.23 11.812 6.402 11.934 6.61 12.034C6.822 12.134 7.09 12.184 7.414 12.184C7.714 12.184 7.976 12.136 8.2 12.04C8.428 11.94 8.616 11.812 8.764 11.656C8.916 11.5 9.03 11.326 9.106 11.134C9.182 10.942 9.22 10.752 9.22 10.564C9.22 10.332 9.19 10.12 9.13 9.928C9.07 9.736 8.958 9.57 8.794 9.43C8.63 9.29 8.404 9.18 8.116 9.1C7.832 9.02 7.466 8.98 7.018 8.98V8.206C7.386 8.202 7.698 8.162 7.954 8.086C8.214 8.01 8.424 7.906 8.584 7.774C8.748 7.642 8.866 7.484 8.938 7.3C9.014 7.116 9.052 6.912 9.052 6.688C9.052 6.44 9.012 6.224 8.932 6.04C8.856 5.856 8.75 5.704 8.614 5.584C8.478 5.464 8.316 5.374 8.128 5.314C7.944 5.254 7.744 5.224 7.528 5.224C7.312 5.224 7.11 5.256 6.922 5.32C6.738 5.384 6.574 5.474 6.43 5.59C6.29 5.702 6.172 5.836 6.076 5.992C5.98 6.148 5.912 6.32 5.872 6.508C5.82 6.648 5.754 6.742 5.674 6.79C5.598 6.834 5.486 6.846 5.338 6.826L4.78 6.73Z" fill="white"/>
<path d="M23.6979 6.51786C23.6976 6.51786 23.6973 6.51786 23.697 6.51786C23.6962 6.51786 23.6953 6.51786 23.6945 6.51786L20.33 6.54669L19.2533 3.21541C19.2116 3.08662 19.096 3 18.9663 3C18.9653 3 18.9643 3 18.9632 3C18.8321 3.00138 18.7168 3.09077 18.6772 3.22133L17.6639 6.57426L14.2995 6.61493C14.1684 6.61656 14.0533 6.70595 14.0139 6.83663C13.9747 6.96732 14.0203 7.10958 14.1269 7.18915L16.8651 9.23249L15.8624 12.5888C15.8234 12.7196 15.8691 12.8618 15.9759 12.9412C16.0285 12.9804 16.0901 13 16.1515 13C16.2149 13 16.2781 12.9794 16.3316 12.9381L19.0373 10.8479L21.7821 12.8817C21.8346 12.9206 21.896 12.9399 21.9573 12.9399C22.0208 12.9399 22.0843 12.9193 22.1378 12.8778C22.243 12.7962 22.2863 12.653 22.2447 12.523L21.1787 9.18792L23.8728 7.09233C23.9498 7.03492 24 6.94075 24 6.83449C24.0002 6.65975 23.8651 6.51811 23.6979 6.51786Z" fill="white"/>
</svg>
