<svg viewBox="0 0 28 16" xmlns="http://www.w3.org/2000/svg">
<rect width="28" height="16" rx="1" fill="#684273"/>
<path d="M8.38 9.898V6.352C8.38 6.248 8.384 6.134 8.392 6.01C8.4 5.886 8.412 5.76 8.428 5.632L5.296 9.898H8.38ZM10.618 9.898V10.51C10.618 10.574 10.598 10.628 10.558 10.672C10.522 10.716 10.464 10.738 10.384 10.738H9.316V13H8.38V10.738H4.564C4.484 10.738 4.414 10.716 4.354 10.672C4.298 10.624 4.262 10.566 4.246 10.498L4.138 9.952L8.32 4.402H9.316V9.898H10.618Z" fill="white"/>
<path d="M23.6979 6.51786C23.6976 6.51786 23.6973 6.51786 23.697 6.51786C23.6962 6.51786 23.6953 6.51786 23.6945 6.51786L20.33 6.54669L19.2533 3.21541C19.2116 3.08662 19.096 3 18.9663 3C18.9653 3 18.9643 3 18.9632 3C18.8321 3.00138 18.7168 3.09077 18.6772 3.22133L17.6639 6.57426L14.2995 6.61493C14.1684 6.61656 14.0533 6.70595 14.0139 6.83663C13.9747 6.96732 14.0203 7.10958 14.1269 7.18915L16.8651 9.23249L15.8624 12.5888C15.8234 12.7196 15.8691 12.8618 15.9759 12.9412C16.0285 12.9804 16.0901 13 16.1515 13C16.2149 13 16.2781 12.9794 16.3316 12.9381L19.0373 10.8479L21.7821 12.8817C21.8346 12.9206 21.896 12.9399 21.9573 12.9399C22.0208 12.9399 22.0843 12.9193 22.1378 12.8778C22.243 12.7962 22.2863 12.653 22.2447 12.523L21.1787 9.18792L23.8728 7.09233C23.9498 7.03492 24 6.94075 24 6.83449C24.0002 6.65975 23.8651 6.51811 23.6979 6.51786Z" fill="white"/>
</svg>
