<svg viewBox="0 0 28 16" xmlns="http://www.w3.org/2000/svg">
<rect width="28" height="16" rx="1" fill="#FFBF00"/>
<path d="M6.172 7.648C6.62 7.552 7.032 7.504 7.408 7.504C7.856 7.504 8.252 7.57 8.596 7.702C8.94 7.834 9.226 8.016 9.454 8.248C9.686 8.48 9.86 8.754 9.976 9.07C10.096 9.386 10.156 9.73 10.156 10.102C10.156 10.558 10.076 10.97 9.916 11.338C9.76 11.706 9.542 12.022 9.262 12.286C8.986 12.546 8.66 12.746 8.284 12.886C7.908 13.026 7.502 13.096 7.066 13.096C6.814 13.096 6.572 13.07 6.34 13.018C6.108 12.97 5.89 12.904 5.686 12.82C5.486 12.736 5.3 12.64 5.128 12.532C4.956 12.424 4.804 12.31 4.672 12.19L5.002 11.734C5.074 11.63 5.168 11.578 5.284 11.578C5.364 11.578 5.454 11.61 5.554 11.674C5.654 11.734 5.776 11.802 5.92 11.878C6.064 11.954 6.232 12.024 6.424 12.088C6.62 12.148 6.852 12.178 7.12 12.178C7.42 12.178 7.69 12.13 7.93 12.034C8.17 11.938 8.376 11.802 8.548 11.626C8.72 11.446 8.852 11.232 8.944 10.984C9.036 10.736 9.082 10.458 9.082 10.15C9.082 9.882 9.042 9.64 8.962 9.424C8.886 9.208 8.768 9.024 8.608 8.872C8.452 8.72 8.256 8.602 8.02 8.518C7.784 8.434 7.508 8.392 7.192 8.392C6.976 8.392 6.75 8.41 6.514 8.446C6.282 8.482 6.044 8.54 5.8 8.62L5.128 8.422L5.818 4.402H9.892V4.87C9.892 5.022 9.844 5.148 9.748 5.248C9.656 5.344 9.496 5.392 9.268 5.392H6.568L6.172 7.648Z" fill="white"/>
<path d="M23.6979 6.51786C23.6976 6.51786 23.6973 6.51786 23.697 6.51786C23.6962 6.51786 23.6953 6.51786 23.6945 6.51786L20.33 6.54669L19.2533 3.21541C19.2116 3.08662 19.096 3 18.9663 3C18.9653 3 18.9643 3 18.9632 3C18.8321 3.00138 18.7168 3.09077 18.6772 3.22133L17.6639 6.57426L14.2995 6.61493C14.1684 6.61656 14.0533 6.70595 14.0139 6.83663C13.9747 6.96732 14.0203 7.10958 14.1269 7.18915L16.8651 9.23249L15.8624 12.5888C15.8234 12.7196 15.8691 12.8618 15.9759 12.9412C16.0285 12.9804 16.0901 13 16.1515 13C16.2149 13 16.2781 12.9794 16.3316 12.9381L19.0373 10.8479L21.7821 12.8817C21.8346 12.9206 21.896 12.9399 21.9573 12.9399C22.0208 12.9399 22.0843 12.9193 22.1378 12.8778C22.243 12.7962 22.2863 12.653 22.2447 12.523L21.1787 9.18792L23.8728 7.09233C23.9498 7.03492 24 6.94075 24 6.83449C24.0002 6.65975 23.8651 6.51811 23.6979 6.51786Z" fill="white"/>
</svg>
