<svg viewBox="0 0 28 16" xmlns="http://www.w3.org/2000/svg">
<g transform="translate(3 2) scale(0.85 0.85)">
<rect width="28" height="16" rx="1" fill="#FF7F00"/>
<path d="M7.468 12.208C7.756 12.208 8.016 12.162 8.248 12.07C8.484 11.978 8.684 11.85 8.848 11.686C9.016 11.522 9.144 11.328 9.232 11.104C9.324 10.88 9.37 10.636 9.37 10.372C9.37 10.092 9.326 9.84 9.238 9.616C9.15 9.388 9.024 9.196 8.86 9.04C8.7 8.88 8.508 8.758 8.284 8.674C8.06 8.59 7.814 8.548 7.546 8.548C7.258 8.548 6.998 8.598 6.766 8.698C6.534 8.794 6.336 8.926 6.172 9.094C6.012 9.258 5.888 9.45 5.8 9.67C5.716 9.886 5.674 10.112 5.674 10.348C5.674 10.624 5.714 10.876 5.794 11.104C5.874 11.332 5.99 11.528 6.142 11.692C6.298 11.856 6.486 11.984 6.706 12.076C6.93 12.164 7.184 12.208 7.468 12.208ZM6.844 7.624C6.768 7.72 6.694 7.814 6.622 7.906C6.554 7.994 6.488 8.082 6.424 8.17C6.628 8.03 6.852 7.922 7.096 7.846C7.34 7.77 7.606 7.732 7.894 7.732C8.242 7.732 8.57 7.79 8.878 7.906C9.186 8.018 9.454 8.184 9.682 8.404C9.914 8.62 10.098 8.888 10.234 9.208C10.37 9.524 10.438 9.886 10.438 10.294C10.438 10.69 10.366 11.058 10.222 11.398C10.078 11.738 9.876 12.034 9.616 12.286C9.36 12.538 9.05 12.736 8.686 12.88C8.326 13.024 7.928 13.096 7.492 13.096C7.06 13.096 6.668 13.028 6.316 12.892C5.964 12.752 5.664 12.556 5.416 12.304C5.172 12.048 4.982 11.74 4.846 11.38C4.714 11.016 4.648 10.61 4.648 10.162C4.648 9.786 4.73 9.386 4.894 8.962C5.062 8.534 5.328 8.078 5.692 7.594L7.876 4.66C7.932 4.588 8.008 4.528 8.104 4.48C8.204 4.428 8.318 4.402 8.446 4.402H9.394L6.844 7.624Z" fill="white"/>
<path d="M23.6979 6.51786C23.6976 6.51786 23.6973 6.51786 23.697 6.51786C23.6962 6.51786 23.6953 6.51786 23.6945 6.51786L20.33 6.54669L19.2533 3.21541C19.2116 3.08662 19.096 3 18.9663 3C18.9653 3 18.9643 3 18.9632 3C18.8321 3.00138 18.7168 3.09077 18.6772 3.22133L17.6639 6.57426L14.2995 6.61493C14.1684 6.61656 14.0533 6.70595 14.0139 6.83663C13.9747 6.96732 14.0203 7.10958 14.1269 7.18915L16.8651 9.23249L15.8624 12.5888C15.8234 12.7196 15.8691 12.8618 15.9759 12.9412C16.0285 12.9804 16.0901 13 16.1515 13C16.2149 13 16.2781 12.9794 16.3316 12.9381L19.0373 10.8479L21.7821 12.8817C21.8346 12.9206 21.896 12.9399 21.9573 12.9399C22.0208 12.9399 22.0843 12.9193 22.1378 12.8778C22.243 12.7962 22.2863 12.653 22.2447 12.523L21.1787 9.18792L23.8728 7.09233C23.9498 7.03492 24 6.94075 24 6.83449C24.0002 6.65975 23.8651 6.51811 23.6979 6.51786Z" fill="white"/>
</g>
</svg>
