<svg viewBox="0 0 22 22" xmlns="http://www.w3.org/2000/svg">
    <rect width="22" height="22" rx="11" fill="#FFD12F"/>
    <path fill-rule="evenodd" clip-rule="evenodd" d="M10.2666 16.7334V15.2667H11.7333V16.7334H10.2666ZM11 6.73339C9.84287 6.73339 8.8819 7.6107 8.74899 8.73339H7.276C7.41262 6.79525 9.02691 5.26672 11 5.26672C13.0627 5.26672 14.7333 6.93733 14.7333 9.00006C14.7333 10.1183 14.0776 10.7341 13.3244 11.3931L13.2437 11.4636C12.585 12.0383 11.853 12.6769 11.7465 13.7334H10.2741C10.31 13.1029 10.4734 12.6363 10.6969 12.267C10.9532 11.8434 11.2982 11.5312 11.6655 11.2404C11.7477 11.1753 11.8327 11.1102 11.9186 11.0444L11.9187 11.0443L11.9187 11.0443C12.2032 10.8264 12.4974 10.601 12.7283 10.3477C13.0446 10.0006 13.2666 9.57969 13.2666 9.00006C13.2666 7.75278 12.2472 6.73339 11 6.73339Z" fill="#363636"/>
</svg>
