<svg viewBox="0 0 22 22" xmlns="http://www.w3.org/2000/svg">
    <path d="M12.3964 19.9942V14.9956C12.3984 14.3069 12.6729 13.6469 13.16 13.1599C13.647 12.6729 14.3069 12.3984 14.9957 12.3964H19.9942C20.6647 12.3977 21.3085 12.6593 21.7897 13.1262C22.2434 10.8145 21.9423 8.41821 20.9309 6.29063C19.9194 4.16304 18.251 2.41676 16.1718 1.30927C14.0926 0.201785 11.7125 -0.208301 9.38257 0.139479C7.0526 0.48726 4.89604 1.5745 3.23085 3.2409C1.56567 4.90729 0.479995 7.06464 0.133908 9.39487C-0.212179 11.7251 0.199638 14.1048 1.30864 16.1833C2.41764 18.2617 4.16513 19.9288 6.29345 20.9387C8.42177 21.9486 10.8183 22.248 13.1296 21.7926C12.6609 21.3111 12.3979 20.6661 12.3964 19.9942V19.9942ZM19.3185 5.44561L19.3317 5.46891L19.3137 5.43951L19.3185 5.44561ZM14.8298 1.76178L14.8343 1.76398L14.8124 1.75599L14.8298 1.76178ZM1.1869 9.09265C1.1896 9.07886 1.1892 9.06496 1.1919 9.05136L1.1946 9.04137C1.1914 9.05826 1.1897 9.07586 1.1869 9.09265ZM1.76153 14.8302L1.75633 14.8143L1.76363 14.8343L1.76153 14.8302ZM5.44536 19.3189L5.43926 19.3144C5.44926 19.3213 5.46055 19.3269 5.47085 19.3337C5.46265 19.3279 5.45356 19.3244 5.44536 19.3189V19.3189ZM9.04061 1.19525L9.05061 1.19255C9.06451 1.18985 9.0785 1.19045 9.0918 1.18755C9.075 1.19075 9.05741 1.19195 9.04061 1.19525Z" fill="#24926C"/>
    <path d="M8.75166 14.1528L5.60108 11.0022L4.55078 12.0519L8.75166 16.2526L17.7534 7.25087L16.7037 6.20117L8.75166 14.1528Z" fill="white"/>
    <path d="M19.9943 12.9961H14.9958C13.8915 12.9961 12.9963 13.8913 12.9963 14.9955V19.9941C12.9963 21.0983 13.8915 21.9935 14.9958 21.9935H19.9943C21.0986 21.9935 21.9937 21.0983 21.9937 19.9941V14.9955C21.9937 13.8913 21.0986 12.9961 19.9943 12.9961Z" fill="#FFD03A"/>
    <path d="M18.6937 20.1066H17.2919V17.324C17.2919 17.1981 17.2932 17.0594 17.2956 16.908C17.3002 16.7565 17.3061 16.6201 17.3131 16.4989C17.2593 16.5636 17.2021 16.6255 17.1418 16.6842C17.0905 16.7355 17.0406 16.7833 16.9918 16.8275L16.412 17.3063L15.6953 16.4252L17.4499 14.9956H18.6944L18.6937 20.1066Z" fill="#6A281A"/>
</svg>
