<svg viewBox="0 0 22 22" xmlns="http://www.w3.org/2000/svg">
    <g clip-path="url(#clip0_307_17234)">
        <path d="M18.7853 3.22561C16.9851 1.42701 14.6169 0.308225 12.0843 0.0598578C9.55171 -0.18851 7.01132 0.448906 4.89597 1.86351C2.78062 3.27811 1.22117 5.38238 0.483302 7.81782C-0.254565 10.2533 -0.125199 12.8692 0.84936 15.22C1.82392 17.5707 3.58338 19.5108 5.82798 20.7098C8.07258 21.9088 10.6635 22.2925 13.1592 21.7955C15.655 21.2984 17.9012 19.9514 19.5152 17.984C21.1292 16.0166 22.0111 13.5504 22.0107 11.0056C22.0089 8.08736 20.8488 5.28914 18.7853 3.22561ZM19.3386 5.4727C19.3318 5.4627 19.3262 5.45129 19.3193 5.44109L19.3241 5.44719C19.3294 5.4554 19.3331 5.4645 19.3386 5.4729V5.4727ZM20.912 9.67746C20.8986 9.57661 20.8826 9.47676 20.8662 9.37732C20.8828 9.47707 20.8985 9.57671 20.912 9.67746ZM20.5847 8.125L20.5771 8.09499L20.5847 8.125ZM20.0924 6.83797C20.0572 6.76134 20.0196 6.6859 19.9823 6.61026C20.0197 6.6861 20.0572 6.76114 20.0924 6.83797ZM18.5097 4.40398C18.4416 4.32668 18.3723 4.25044 18.3017 4.17527C18.3723 4.25061 18.4414 4.32634 18.5097 4.40398ZM14.8385 1.76449L14.8166 1.75649L14.834 1.76229L14.8385 1.76449ZM17.3568 3.27603L17.331 3.25672L17.3568 3.27603ZM16.2733 2.51146C16.1958 2.46323 16.1181 2.41541 16.0392 2.36929C16.1178 2.41531 16.1956 2.46313 16.2733 2.51146ZM13.5703 1.34509C13.4845 1.32237 13.399 1.29916 13.3125 1.27875C13.3989 1.29926 13.4842 1.32227 13.5703 1.34509ZM11.9969 1.05074C11.9761 1.04874 11.9546 1.04954 11.9338 1.04764C11.9548 1.04954 11.9758 1.04864 11.9969 1.05074ZM10.6878 1.01682C10.5722 1.02043 10.4577 1.02683 10.3428 1.03413C10.4581 1.02653 10.5724 1.02073 10.6878 1.01682ZM9.09439 1.18791C9.07758 1.19111 9.05997 1.19231 9.04317 1.19561L9.05317 1.19291C9.06708 1.19021 9.08108 1.19081 9.09439 1.18791ZM7.73973 1.55669C7.66099 1.5838 7.58335 1.61322 7.50551 1.64243C7.58365 1.61322 7.66129 1.5839 7.74013 1.55669H7.73973ZM6.30983 2.17269L6.28341 2.1854L6.30983 2.17269ZM5.16587 2.89304C5.08583 2.95037 5.00809 3.0095 4.93025 3.06923C5.00879 3.0092 5.08643 2.95017 5.16627 2.89284L5.16587 2.89304ZM1.19492 9.04405C1.19162 9.06086 1.19042 9.07847 1.18722 9.09528C1.18992 9.08157 1.18952 9.06756 1.19222 9.05396L1.19492 9.04405ZM3.06874 4.93094C3.00871 5.00878 2.94988 5.08692 2.89256 5.16655C2.94988 5.08672 3.00891 5.00908 3.06874 4.93094ZM2.18531 6.2838L2.1721 6.31121L2.18531 6.2838ZM1.64214 7.5061C1.61303 7.58394 1.58351 7.66168 1.5564 7.74041C1.58361 7.66158 1.61293 7.58394 1.64214 7.5061ZM1.03385 10.3431C1.02634 10.4576 1.02014 10.5725 1.01654 10.6881C1.02044 10.5727 1.02624 10.4583 1.03385 10.3431ZM1.7568 14.8186L1.7641 14.8386L1.762 14.8345L1.7568 14.8186ZM1.04735 11.9341C1.04925 11.9549 1.04845 11.9764 1.05045 11.9972C1.04845 11.9761 1.04925 11.9551 1.04735 11.9341ZM1.27847 13.3127C1.29848 13.3993 1.32199 13.4848 1.3447 13.5705C1.32189 13.4845 1.29898 13.3992 1.27847 13.3127ZM3.27574 17.3571L3.25643 17.3313L3.27574 17.3571ZM2.51117 16.2736C2.46294 16.1959 2.41512 16.1186 2.3691 16.0395C2.41502 16.1181 2.46294 16.1961 2.51117 16.2736ZM4.17498 18.302C4.25022 18.3726 4.32646 18.4419 4.40369 18.51C4.32606 18.4417 4.25032 18.3726 4.17498 18.302ZM5.4408 19.3197C5.45081 19.3266 5.46211 19.3322 5.47242 19.339C5.46421 19.3335 5.45511 19.3299 5.44691 19.3245L5.4408 19.3197ZM6.60997 19.983C6.68561 20.02 6.76105 20.0575 6.83769 20.0931C6.76085 20.0574 6.68581 20.02 6.60997 19.9829V19.983ZM8.0951 20.5775L8.12512 20.5851L8.0951 20.5775ZM9.37663 20.8665C9.47668 20.8829 9.57673 20.899 9.67677 20.9124C9.57643 20.8988 9.47678 20.883 9.37663 20.8664V20.8665Z" fill="#24926C"/>
        <path d="M8.7543 14.157L5.60276 11.0055L4.55225 12.056L8.7543 16.258L17.7587 7.25364L16.7082 6.20312L8.7543 14.157Z" fill="white"/>
        <path d="M16.6501 11.8203L18.5017 14.8971L22 15.7072L19.6461 18.4189L19.9565 21.9964L16.6501 20.5962L13.3436 21.9964L13.654 18.4189L11.3 15.7072L14.7985 14.8971L16.6501 11.8203Z" fill="#FFD03A"/>
        <path d="M17.2766 19.3355H16.3334V17.4632C16.3334 17.3785 16.3342 17.2852 16.3359 17.1833C16.339 17.0813 16.3429 16.9896 16.3476 16.908C16.3114 16.9516 16.2729 16.9932 16.2324 17.0327C16.1979 17.0672 16.1642 17.0993 16.1312 17.1291L15.7408 17.4513L15.259 16.8586L16.4397 15.8965H17.2771L17.2766 19.3355Z" fill="#6A281A"/>
    </g>
    <defs>
        <clipPath id="clip0_307_17234">
            <rect width="22" height="22" fill="white"/>
        </clipPath>
    </defs>
</svg>
